<svg width="12" height="12" viewBox="0 0 12 12" fill="none" xmlns="http://www.w3.org/2000/svg">
<path d="M9 0.5C9 0.223858 8.77614 0 8.5 0C8.22386 0 8 0.223858 8 0.5H9ZM4 0.5C4 0.223858 3.77614 0 3.5 0C3.22386 0 3 0.223858 3 0.5H4ZM8 2.5C8 2.77614 8.22386 3 8.5 3C8.77614 3 9 2.77614 9 2.5H8ZM3 2.5C3 2.77614 3.22386 3 3.5 3C3.77614 3 4 2.77614 4 2.5H3ZM5.77557 9L5.40167 9.33195L5.80082 9.78156L6.17013 9.30713L5.77557 9ZM10.5 11H1.5V12H10.5V11ZM1 10.5V4H0V10.5H1ZM1 4V2.5H0V4H1ZM8.5 2H10.5V1H8.5V2ZM9 1.5V0.5H8V1.5H9ZM1.5 2H3.5V1H1.5V2ZM3.5 2H8.5V1H3.5V2ZM4 1.5V0.5H3V1.5H4ZM8 1.5V2.5H9V1.5H8ZM3 1.5V2.5H4V1.5H3ZM11 2.5V4H12V2.5H11ZM11 4V10.5H12V4H11ZM11.5 3.5H0.5V4.5H11.5V3.5ZM3.62609 7.33195L5.40167 9.33195L6.14948 8.66805L4.37391 6.66805L3.62609 7.33195ZM6.17013 9.30713L8.89456 5.80713L8.10544 5.19287L5.38102 8.69287L6.17013 9.30713ZM1.5 11C1.22386 11 1 10.7761 1 10.5H0C0 11.3284 0.671572 12 1.5 12V11ZM10.5 12C11.3284 12 12 11.3284 12 10.5H11C11 10.7761 10.7761 11 10.5 11V12ZM10.5 2C10.7761 2 11 2.22386 11 2.5H12C12 1.67157 11.3284 1 10.5 1V2ZM1 2.5C1 2.22386 1.22386 2 1.5 2V1C0.671573 1 0 1.67157 0 2.5H1Z" fill="#999"/>
</svg>
