<svg width="13" height="12" viewBox="0 0 13 12" fill="none" xmlns="http://www.w3.org/2000/svg">
<path d="M4.02637 11.2529C3.8623 10.8929 3.76204 10.6673 3.72559 10.5762L3.30859 9.6123C3.18099 9.31608 3.07161 9.07454 2.98047 8.8877L2.72754 8.375C2.23991 7.40885 1.66341 6.72754 0.998047 6.33105C1.77734 5.6748 2.47233 5.34668 3.08301 5.34668C3.48861 5.34668 3.80762 5.50391 4.04004 5.81836C4.27246 6.12826 4.4707 6.66829 4.63477 7.43848C5.81966 5.19173 6.74251 3.63997 7.40332 2.7832C7.99577 2.01302 8.50163 1.5026 8.9209 1.25195C9.34473 1.0013 9.90527 0.875977 10.6025 0.875977C11.04 0.875977 11.514 0.960286 12.0244 1.12891C10.835 1.9082 9.53613 3.1888 8.12793 4.9707C6.72428 6.7526 5.3571 8.84668 4.02637 11.2529Z" fill="#149ECB"/>
</svg>
