<svg xmlns="http://www.w3.org/2000/svg" width="160.352" height="45.278" viewBox="0 0 160.352 45.278"><defs><style>.a{fill:#5fc82b;}.b{fill:#0c48d8;}</style></defs><g transform="translate(112.15 112.832)"><path d="M562.084,288.01v-5.634h-.6v4.507l-2.993-4.507h-.57v5.634h.6v-4.521l2.993,4.525Zm-6.014,0v-.539h-2.9v-2.037h2.465V284.9H553.17v-1.99h2.9v-.539h-3.5V288Zm-5.356-1.553a1.408,1.408,0,0,0-.475-1.118,1.813,1.813,0,0,0-1.03-.4l-.618-.1a1.636,1.636,0,0,1-.761-.308.817.817,0,0,1-.253-.65,1.042,1.042,0,0,1,1.188-1.046,1.775,1.775,0,0,1,1.315.482l.389-.387a2.264,2.264,0,0,0-1.68-.618,1.594,1.594,0,0,0-1.806,1.585,1.335,1.335,0,0,0,.428,1.056,2.06,2.06,0,0,0,1.037.428l.659.1a1.211,1.211,0,0,1,.736.269.9.9,0,0,1,.269.7c0,.657-.507,1.046-1.331,1.046a1.937,1.937,0,0,1-1.537-.618l-.412.412a2.469,2.469,0,0,0,1.937.745c1.173,0,1.949-.611,1.949-1.6M545.988,288v-.539H543.1v-5.106h-.6v5.634Zm-5.333,0v-.539h-2.894v-2.03h2.465V284.9h-2.465v-1.99h2.9v-.539H537.15V288Zm-6.064-4.058a.993.993,0,0,1-1.125,1.03h-1.505v-2.067h1.505a1,1,0,0,1,1.125,1.037m.7,4.065-1.34-2.56a1.463,1.463,0,0,0,1.232-1.512,1.526,1.526,0,0,0-1.673-1.569h-2.157V288h.6v-2.5h1.354l1.277,2.5Zm-5.419-5.634h-.65l-1.306,2.7-1.331-2.7h-.65l1.68,3.312v2.329h.6V285.68Zm-4.951.532v-.539h-3.873v.539h1.632v5.106h.6v-5.106Zm-4.754,3.549a1.409,1.409,0,0,0-.475-1.118,1.819,1.819,0,0,0-1.03-.4l-.618-.1a1.627,1.627,0,0,1-.761-.308.817.817,0,0,1-.254-.65,1.041,1.041,0,0,1,1.188-1.046,1.778,1.778,0,0,1,1.315.482l.387-.387a2.259,2.259,0,0,0-1.68-.618,1.6,1.6,0,0,0-1.806,1.585,1.334,1.334,0,0,0,.428,1.056,2.072,2.072,0,0,0,1.039.428l.657.1a1.221,1.221,0,0,1,.738.269.912.912,0,0,1,.269.7c0,.657-.507,1.046-1.331,1.046a1.937,1.937,0,0,1-1.537-.618l-.412.412a2.466,2.466,0,0,0,1.937.745c1.173,0,1.949-.611,1.949-1.6m-5.125,0a1.408,1.408,0,0,0-.475-1.118,1.819,1.819,0,0,0-1.03-.4l-.618-.1a1.627,1.627,0,0,1-.761-.308.817.817,0,0,1-.254-.65,1.041,1.041,0,0,1,1.188-1.046,1.778,1.778,0,0,1,1.315.482l.387-.387a2.259,2.259,0,0,0-1.68-.618,1.6,1.6,0,0,0-1.806,1.585,1.335,1.335,0,0,0,.428,1.056,2.072,2.072,0,0,0,1.039.428l.657.1a1.221,1.221,0,0,1,.738.269.912.912,0,0,1,.269.7c0,.657-.507,1.046-1.331,1.046a1.937,1.937,0,0,1-1.537-.618l-.4.426a2.466,2.466,0,0,0,1.937.745c1.173,0,1.949-.611,1.949-1.6m-5.4-.5v-.9h-1.988v.528h1.391v.428a1.472,1.472,0,0,1-.317,1.021,1.409,1.409,0,0,1-2.044.088c-.352-.364-.4-.754-.4-1.937s.04-1.562.4-1.926a1.388,1.388,0,0,1,2.345.745h.6a1.921,1.921,0,0,0-1.972-1.687,2,2,0,0,0-1.442.586c-.528.528-.528,1.085-.528,2.289s0,1.75.528,2.289a2.067,2.067,0,0,0,2.947-.063,1.936,1.936,0,0,0,.482-1.458m-5.974,2.06v-5.634h-.615v4.507l-2.993-4.507h-.57v5.634h.6v-4.532l2.993,4.525Zm-6.393-5.634h-.6v5.634h.6Zm-2.829,5.634v-5.634h-.6v4.507l-2.993-4.507h-.57v5.634h.6v-4.532l2.993,4.525Zm-6.787-2.895a3.057,3.057,0,0,1-.372,1.937,1.47,1.47,0,0,1-1.109.412h-1.232v-4.567H486.2a1.47,1.47,0,0,1,1.109.412,2.659,2.659,0,0,1,.372,1.806m.6,0a2.978,2.978,0,0,0-.555-2.234,1.967,1.967,0,0,0-1.426-.528h-1.937V288H486.3a1.974,1.974,0,0,0,1.426-.528,3.307,3.307,0,0,0,.555-2.361m-5.562,2.884v-.539h-2.886v-5.106h-.6v5.634Zm-5.712-5.634h-.6v5.634h.611Zm-3.217,4.064a1.015,1.015,0,0,1-1.134,1.039h-1.537V285.4h1.537a1,1,0,0,1,1.134,1.03m-.088-2.551c0,.674-.482.982-1.109.982h-1.474v-1.956H472.6c.627,0,1.109.3,1.109.974m.69,2.567a1.365,1.365,0,0,0-.919-1.338,1.292,1.292,0,0,0,.831-1.232,1.489,1.489,0,0,0-1.664-1.505H470.52v5.634h2.2a1.5,1.5,0,0,0,1.68-1.562m-5.523-3.537v-.539H465v.539h1.632v5.106h.6v-5.106Zm-5.435,3.24v-3.778h-.6V286.1a1.367,1.367,0,1,1-2.732,0v-3.731h-.6v3.778a1.969,1.969,0,0,0,3.937,0" transform="translate(-513.882 -368.714)"/><path d="M530.83,220.457a1.408,1.408,0,0,0-.475-1.118,1.818,1.818,0,0,0-1.03-.4l-.618-.1a1.627,1.627,0,0,1-.761-.308.817.817,0,0,1-.254-.65,1.041,1.041,0,0,1,1.188-1.046,1.778,1.778,0,0,1,1.315.482l.387-.387a2.259,2.259,0,0,0-1.68-.618,1.6,1.6,0,0,0-1.806,1.585,1.335,1.335,0,0,0,.428,1.056,2.072,2.072,0,0,0,1.039.428l.657.1a1.221,1.221,0,0,1,.738.269.912.912,0,0,1,.269.7c0,.657-.507,1.046-1.331,1.046a1.937,1.937,0,0,1-1.537-.618l-.412.419a2.466,2.466,0,0,0,1.937.745c1.173,0,1.949-.611,1.949-1.6m-5.546-.31v-3.778h-.6V220.1a1.368,1.368,0,1,1-2.734,0v-3.731h-.6v3.778a1.97,1.97,0,0,0,3.939,0m-5.505-3.24v-.539h-3.873v.539h1.632v5.106h.6v-5.106Zm-5.511-.539h-.6V222h.6ZM512.021,222v-.539H509.13v-5.106h-.6v5.634Zm-5.134,0v-.539H504v-5.106h-.6v5.634Zm-6.259-1.8h-2.113l1.056-2.979ZM501.9,222l-2.069-5.634h-.521L497.23,222h.643l.451-1.276h2.465l.451,1.276Zm-6.162,0v-5.634h-.6V218.9h-2.68v-2.528h-.6V222h.6v-2.569h2.678v2.576ZM490,220.45a1.409,1.409,0,0,0-.475-1.118,1.814,1.814,0,0,0-1.03-.4l-.618-.1a1.635,1.635,0,0,1-.761-.308.817.817,0,0,1-.254-.65,1.042,1.042,0,0,1,1.188-1.046,1.775,1.775,0,0,1,1.315.482l.389-.387a2.264,2.264,0,0,0-1.68-.618,1.594,1.594,0,0,0-1.806,1.585,1.334,1.334,0,0,0,.428,1.056,2.06,2.06,0,0,0,1.037.428l.659.1a1.211,1.211,0,0,1,.736.269.905.905,0,0,1,.269.7c0,.657-.507,1.046-1.331,1.046a1.937,1.937,0,0,1-1.537-.618l-.412.412a2.469,2.469,0,0,0,1.937.745c1.173,0,1.949-.611,1.949-1.6m-5.546-.31v-3.764h-.607V220.1a1.367,1.367,0,1,1-2.732,0v-3.731h-.6v3.778a1.969,1.969,0,0,0,3.937,0m-5.506-3.24v-.539H475.07v.539H476.7v5.106h.6v-5.106Zm-5.134,5.106v-.539h-2.9v-2.041h2.465V218.9H470.91v-1.99h2.9v-.539h-3.5V222Zm-5.844-4a1.069,1.069,0,0,1-1.2,1.125h-1.444v-2.234h1.442a1.064,1.064,0,0,1,1.2,1.116m.6,0a1.6,1.6,0,0,0-1.743-1.655h-2.1V222h.6v-2.315h1.5a1.61,1.61,0,0,0,1.743-1.664m-6.458,1.166c0,1.18-.039,1.56-.4,1.924a1.375,1.375,0,0,1-1.949,0c-.352-.364-.4-.745-.4-1.924s.04-1.562.4-1.926a1.379,1.379,0,0,1,1.949,0c.352.364.4.745.4,1.926m.6,0c0-1.2,0-1.752-.528-2.289a2.067,2.067,0,0,0-2.884,0c-.528.528-.528,1.085-.528,2.289s0,1.75.528,2.289a2.067,2.067,0,0,0,2.884,0c.528-.528.528-1.086.528-2.289" transform="translate(-513.281 -314.335)"/><path class="a" d="M168.457,145.233c3.555-7.159,8.909-13.418,5.356-13.011a17.657,17.657,0,0,0-5.794,1.785,20.7,20.7,0,0,1,2.528-1.033,19.515,19.515,0,0,0-10.127,11.694,22.539,22.539,0,0,1,3.648-2.849c6.116-3.873-.107,3.873-1.474,13.673,1.232-1.585,2.782-4.049,4.549-6.743a19.506,19.506,0,0,1,1.313-3.521m19.29-.993c-1.426-.408-2.909.423-4.4,2.016-.528,1.285-1.07,2.734-1.636,4.379-2.38,6.912-5.347,19.719-9.684,18.135a5.306,5.306,0,0,1-1.078-.528,12.3,12.3,0,0,1-1.8,2.442,5.783,5.783,0,0,1-1.634,1.116c8.219,8.09,23.355,7.747,22.494-2.3a202.7,202.7,0,0,1-.854-24.681,5.377,5.377,0,0,0-1.409-.567m13.869,10.379a24.157,24.157,0,0,0-.6-5.152c-1.43-6.27-6.939-13.661-10.036-13.178-.653.1-1.794.317-3.345,2.148.558.694,1.129,1.461,1.7,2.273,1.136-11.31,8.043,2.789,9.87,14.789a2.1,2.1,0,0,0,.988.461c1.21.252,1.409-1.107,1.426-1.338" transform="translate(-267.46 -245.035)"/><path class="b" d="M160.614,138.994c-10.476-6.379-23.807,29.473-24.806,20.459-2.576-17.372,10.824-22.873,10.824-22.873A22.794,22.794,0,0,0,131.4,158.31c.155,10.168,5.83,16,7.875,17.01a5.135,5.135,0,0,0,5.969-1.032c4.294-4.083,12.052-28.313,18.591-26.436,7.317,1.761,6.347,17.186,6.7,20.144.7,5.895,2.354,5.19,4.652.859a21.638,21.638,0,0,0,2.52-10.661s-.109,1.651-1.43,1.375c-1.185-.246-1.629-.924-4.611-5.59-3.123-4.884-7.9-13.06-11.05-14.98" transform="translate(-243.545 -248.641)"/></g></svg>