<svg width="12" height="12" viewBox="0 0 12 12" fill="none" xmlns="http://www.w3.org/2000/svg">
<path d="M0.5 1.68182C0.223858 1.68182 0 1.90568 0 2.18182C0 2.45797 0.223858 2.68182 0.5 2.68182V1.68182ZM11.5 2.68182C11.7762 2.68182 12 2.45797 12 2.18182C12 1.90568 11.7762 1.68182 11.5 1.68182V2.68182ZM3.21236 2.30309C3.29314 1.97997 3.43982 1.60569 3.60734 1.32325C3.69161 1.18115 3.769 1.08308 3.82959 1.02677C3.8977 0.963475 3.89197 1 3.8182 1V0C3.52624 0 3.29778 0.155844 3.14884 0.294253C2.99239 0.439649 2.85841 0.625669 2.74724 0.813122C2.52385 1.18977 2.34325 1.65641 2.24221 2.06056L3.21236 2.30309ZM3.8182 1C4.09092 1 5.04547 1 6.00001 1C6.95456 1 7.9091 1.00001 8.18183 1.00001V6.13928e-06C7.9091 6.13928e-06 6.95456 4.61936e-06 6.00001 3.06964e-06C5.04547 1.54972e-06 4.09092 0 3.8182 0V1ZM2.72729 2.68182H9.27274V1.68182H2.72729V2.68182ZM8.18183 1.00001C8.07828 1.00001 8.02929 0.95329 8.04873 0.968277C8.06203 0.978529 8.09388 1.00833 8.14181 1.06991C8.23675 1.19187 8.34304 1.37066 8.44712 1.57121C8.54898 1.76752 8.63933 1.96628 8.70472 2.1175C8.73723 2.19267 8.76314 2.2551 8.78077 2.29833C8.78957 2.31993 8.79629 2.33668 8.8007 2.34777C8.8029 2.35331 8.80453 2.35743 8.80555 2.36003C8.80607 2.36134 8.80643 2.36226 8.80663 2.36278C8.80674 2.36305 8.8068 2.36321 8.80682 2.36328C8.80684 2.36331 8.80684 2.36332 8.80683 2.3633C8.80683 2.36329 8.80682 2.36326 8.80682 2.36325C8.8068 2.36321 8.80678 2.36317 9.27274 2.18182C9.73869 2.00048 9.73867 2.00042 9.73865 2.00036C9.73863 2.00033 9.73861 2.00026 9.73858 2.0002C9.73854 2.00008 9.73848 1.99993 9.73841 1.99976C9.73828 1.99942 9.73811 1.99897 9.73789 1.99843C9.73747 1.99734 9.73688 1.99585 9.73614 1.99397C9.73466 1.9902 9.73256 1.98488 9.72987 1.97811C9.72447 1.96456 9.7167 1.94518 9.70676 1.92079C9.68688 1.87204 9.65825 1.80308 9.62258 1.72058C9.5516 1.55646 9.45104 1.33476 9.33472 1.11062C9.22061 0.890715 9.08146 0.64905 8.93094 0.455672C8.85614 0.359581 8.76526 0.257989 8.65924 0.176267C8.55937 0.0992795 8.39447 6.13928e-06 8.18183 6.13928e-06V1.00001ZM0.5 2.68182H1.63638V1.68182H0.5V2.68182ZM1.63638 2.68182H2.72729V1.68182H1.63638V2.68182ZM1.13638 2.18182V10.5H2.13638V2.18182H1.13638ZM9.27274 2.68182H10.3636V1.68182H9.27274V2.68182ZM10.3636 2.68182H11.5V1.68182H10.3636V2.68182ZM2.63638 12H9.36365V11H2.63638V12ZM10.8636 10.5V2.18182H9.86365V10.5H10.8636ZM3.3182 3.81819V10.3636H4.3182V3.81819H3.3182ZM5.50001 3.81819V10.3636H6.50001V3.81819H5.50001ZM7.68183 3.81819V10.3636H8.68183V3.81819H7.68183ZM9.36365 12C10.1921 12 10.8636 11.3284 10.8636 10.5H9.86365C9.86365 10.7761 9.63979 11 9.36365 11V12ZM1.13638 10.5C1.13638 11.3284 1.80795 12 2.63638 12V11C2.36023 11 2.13638 10.7761 2.13638 10.5H1.13638Z" fill="#CC3300"/>
</svg>
